<svg xmlns="http://www.w3.org/2000/svg" viewBox="0 0 496.2 89.6" role="img" aria-label="MacroMic"><path fill="#ffffff" d="M8 80.4V11.7H34.1L42.4 42.3Q42.9 43.9 43.6 46.65Q44.3 49.4 45 52.4Q45.7 55.4 46.2 57.8H47Q47.4 55.9 48 53.25Q48.6 50.6 49.3 47.65Q50 44.7 50.6 42.2L59 11.7H84.4V80.4H67V51.1Q67 46.8 67.05 42.4Q67.1 38 67.2 34.4Q67.3 30.8 67.3 29.2H66.5Q66.2 30.7 65.55 33.55Q64.9 36.4 64.15 39.45Q63.4 42.5 62.8 44.7L52.8 80.4H38.4L28.3 44.7Q27.8 42.7 27.1 39.9Q26.4 37.1 25.75 34.2Q25.1 31.3 24.6 29.3H23.8Q23.9 31.9 24 35.65Q24.1 39.4 24.2 43.45Q24.3 47.5 24.3 51.1V80.4ZM111.8 81.6Q108.5 81.6 105.35 80.95Q102.2 80.3 99.65 78.65Q97.1 77 95.6 74.1Q94.1 71.2 94.1 66.8Q94.1 61.1 96.5 57.5Q98.9 53.9 103.45 51.85Q108 49.8 114.45 49Q120.9 48.2 128.9 48.2V44.9Q128.9 42.6 128 41.05Q127.1 39.5 125.35 38.65Q123.6 37.8 120.7 37.8Q118.1 37.8 116.15 38.4Q114.2 39 113.2 40.15Q112.2 41.3 112.2 42.9V43.8H96.2Q96.1 43.3 96.1 42.95Q96.1 42.6 96.1 42Q96.1 37.3 99.05 33.8Q102 30.3 107.5 28.4Q113 26.5 120.8 26.5Q128.1 26.5 133.55 28.3Q139 30.1 142.15 33.8Q145.3 37.5 145.3 43.5V66Q145.3 67.7 146.25 68.7Q147.2 69.7 148.6 69.7H152V79.8Q150.9 80.3 148.55 80.95Q146.2 81.6 142.9 81.6Q139.5 81.6 136.95 80.75Q134.4 79.9 132.75 78.35Q131.1 76.8 130.5 74.7H129.8Q127.9 76.7 125.35 78.3Q122.8 79.9 119.45 80.75Q116.1 81.6 111.8 81.6ZM117.9 70.3Q120.3 70.3 122.3 69.6Q124.3 68.9 125.75 67.65Q127.2 66.4 128.05 64.6Q128.9 62.8 128.9 60.7V57.2Q123.2 57.2 119.1 58Q115 58.8 112.8 60.5Q110.6 62.2 110.6 64.8Q110.6 66.7 111.55 67.95Q112.5 69.2 114.1 69.75Q115.7 70.3 117.9 70.3ZM182.6 81.6Q173.9 81.6 167.8 78.6Q161.7 75.6 158.45 69.45Q155.2 63.3 155.2 54Q155.2 44.7 158.5 38.55Q161.8 32.4 167.9 29.4Q174 26.4 182.6 26.4Q188.2 26.4 192.95 27.7Q197.7 29 201.25 31.7Q204.8 34.4 206.7 38.5Q208.6 42.6 208.6 48.3H192.5Q192.5 44.9 191.35 42.7Q190.2 40.5 188 39.4Q185.8 38.3 182.5 38.3Q178.7 38.3 176.35 39.9Q174 41.5 172.9 44.6Q171.8 47.7 171.8 52.3V55.9Q171.8 60.4 172.9 63.5Q174 66.6 176.5 68.15Q179 69.7 182.9 69.7Q186.3 69.7 188.55 68.65Q190.8 67.6 192 65.35Q193.2 63.1 193.2 59.7H208.6Q208.6 65.2 206.7 69.35Q204.8 73.5 201.3 76.2Q197.8 78.9 193 80.25Q188.2 81.6 182.6 81.6ZM217.9 80.4V27.7H231.4L232.6 35.8H233.3Q234.5 33.1 236.25 30.95Q238 28.8 240.55 27.6Q243.1 26.4 246.2 26.4Q248 26.4 249.5 26.75Q251 27.1 251.7 27.5V41.8H246.5Q243.4 41.8 241.05 42.65Q238.7 43.5 237.2 45.25Q235.7 47 235 49.5Q234.3 52 234.3 55.3V80.4ZM282.1 81.6Q273.3 81.6 267.05 78.6Q260.8 75.6 257.45 69.45Q254.1 63.3 254.1 54Q254.1 44.7 257.45 38.6Q260.8 32.5 267.05 29.5Q273.3 26.5 282.1 26.5Q291 26.5 297.25 29.5Q303.5 32.5 306.85 38.6Q310.2 44.7 310.2 54Q310.2 63.3 306.85 69.45Q303.5 75.6 297.25 78.6Q291 81.6 282.1 81.6ZM282.1 69.7Q286.2 69.7 288.75 68.1Q291.3 66.5 292.45 63.45Q293.6 60.4 293.6 55.9V52.2Q293.6 47.7 292.45 44.6Q291.3 41.5 288.75 39.95Q286.2 38.4 282.1 38.4Q278.1 38.4 275.55 39.95Q273 41.5 271.85 44.6Q270.7 47.7 270.7 52.2V55.9Q270.7 60.4 271.85 63.45Q273 66.5 275.55 68.1Q278.1 69.7 282.1 69.7ZM320.4 80.4V11.7H346.5L354.8 42.3Q355.3 43.9 356 46.65Q356.7 49.4 357.4 52.4Q358.1 55.4 358.6 57.8H359.4Q359.8 55.9 360.4 53.25Q361 50.6 361.7 47.65Q362.4 44.7 363 42.2L371.4 11.7H396.8V80.4H379.4V51.1Q379.4 46.8 379.45 42.4Q379.5 38 379.6 34.4Q379.7 30.8 379.7 29.2H378.9Q378.6 30.7 377.95 33.55Q377.3 36.4 376.55 39.45Q375.8 42.5 375.2 44.7L365.2 80.4H350.8L340.7 44.7Q340.2 42.7 339.5 39.9Q338.8 37.1 338.15 34.2Q337.5 31.3 337 29.3H336.2Q336.3 31.9 336.4 35.65Q336.5 39.4 336.6 43.45Q336.7 47.5 336.7 51.1V80.4ZM409.5 20.6V8H425.9V20.6ZM409.5 80.4V27.7H425.9V80.4ZM462.2 81.6Q453.5 81.6 447.4 78.6Q441.3 75.6 438.05 69.45Q434.8 63.3 434.8 54Q434.8 44.7 438.1 38.55Q441.4 32.4 447.5 29.4Q453.6 26.4 462.2 26.4Q467.8 26.4 472.55 27.7Q477.3 29 480.85 31.7Q484.4 34.4 486.3 38.5Q488.2 42.6 488.2 48.3H472.1Q472.1 44.9 470.95 42.7Q469.8 40.5 467.6 39.4Q465.4 38.3 462.1 38.3Q458.3 38.3 455.95 39.9Q453.6 41.5 452.5 44.6Q451.4 47.7 451.4 52.3V55.9Q451.4 60.4 452.5 63.5Q453.6 66.6 456.1 68.15Q458.6 69.7 462.5 69.7Q465.9 69.7 468.15 68.65Q470.4 67.6 471.6 65.35Q472.8 63.1 472.8 59.7H488.2Q488.2 65.2 486.3 69.35Q484.4 73.5 480.9 76.2Q477.4 78.9 472.6 80.25Q467.8 81.6 462.2 81.6Z"/></svg>
